<svg t="1606290420655" class="icon" viewBox="0 0 1221 1024" version="1.1" xmlns="http://www.w3.org/2000/svg" p-id="17836" width="128" height="128"><path d="M1135.313455 963.339636h4.514909c5.829818-1.954909 11.380364-3.921455 16.64-5.934545v-15.36c0-3.863273 3.106909-6.993455 6.935272-6.993455 3.84 0 6.935273 3.130182 6.935273 6.981819v9.716363c33.047273-14.510545 51.316364-30.533818 51.316364-47.406545 0-27.042909-47.150545-51.968-126.498909-71.854546l-1.396364 10.589091a59.077818 59.077818 0 0 1-4.526545 16.209455c-0.744727 1.698909-1.536 3.362909-2.373819 4.980363a70.795636 70.795636 0 0 1-5.783272 8.727273l-0.663273 0.849455c-1.396364 1.675636-2.781091 3.281455-4.340364 4.817454-0.977455 1.000727-1.978182 1.966545-3.013818 2.874182a81.687273 81.687273 0 0 1-6.516364 5.12 61.172364 61.172364 0 0 1-8.750545 5.026909 61.265455 61.265455 0 0 1-13.824 4.689455 55.505455 55.505455 0 0 1-10.938182 1.105454H218.100364a55.133091 55.133091 0 0 1-15.662546-2.257454 54.109091 54.109091 0 0 1-5.550545-2.338909 59.205818 59.205818 0 0 1-3.246546-1.664c-1.070545-0.605091-2.152727-1.198545-3.2-1.861819a61.184 61.184 0 0 1-5.771636-4.072727 60.485818 60.485818 0 0 1-6.050909-5.410909 67.863273 67.863273 0 0 1-4.352-4.829091l-0.663273-0.837818a63.208727 63.208727 0 0 1-10.263273-18.932364 62.440727 62.440727 0 0 1-2.525091-10.973091l-2.234181-17.210181-3.269819 0.721454-0.232727-1.850182C58.647273 846.813091 0.011636 874.309818 0.011636 904.459636c0 22.353455 32.128 43.170909 87.947637 60.974546 106.274909 34.746182 302.254545 58.065455 526.429091 58.065454h10.845091c0.209455-0.395636 0.442182-0.779636 0.663272-1.163636 212.526545-0.989091 398.114909-22.912 503.540364-55.517091a6.923636 6.923636 0 0 1 5.864727-3.490909z" fill="#EDEEF8" p-id="17837"></path><path d="M155.869091 165.457455l2.187636 51.712-2.187636-51.712z m19.595636 51.712v1.128727h907.822546l2.187636-51.979637a25.018182 25.018182 0 0 0-18.781091-24.354909 22.807273 22.807273 0 0 0-8.727273-1.745454H571.950545v0.081454h-10.356363v-67.723636a30.522182 30.522182 0 0 0-23.063273-29.463273 30.813091 30.813091 0 0 0-11.089454-2.082909H289.396364a30.626909 30.626909 0 0 0-30.708364 30.417455v68.852363h-64.884364c-13.149091 0-23.854545 11.170909-24.005818 24.971637l2.199273 51.898182h3.467636z" fill="#EDEEF8" p-id="17838"></path><path d="M1156.712727 244.526545z m-985.693091 596.712728a48.570182 48.570182 0 0 0 16.221091 29.789091 46.731636 46.731636 0 0 0 30.859637 12.381091h814.906181a46.731636 46.731636 0 0 0 30.871273-12.392728 48.570182 48.570182 0 0 0 16.209455-29.777454l71.424-551.272728c2.292364-17.652364-2.036364-34.245818-11.869091-45.53309a37.259636 37.259636 0 0 0-28.788364-13.288728H140.241455a37.259636 37.259636 0 0 0-28.753455 13.288728c-9.832727 11.287273-14.161455 27.950545-11.869091 45.53309l71.400727 551.272728z m694.632728-281.157818a157.963636 157.963636 0 0 1 54.376727 9.227636 111.243636 111.243636 0 0 1 19.781818 9.460364c2.373818 1.454545 4.631273 2.955636 6.772364 4.538181 2.129455 1.570909 4.142545 3.211636 6.027636 4.922182 2.746182 2.443636 5.282909 5.12 7.575273 8.005818 1.442909 1.815273 2.781091 3.723636 3.979636 5.725091 4.096 6.586182 6.295273 14.173091 6.365091 21.946182A41.425455 41.425455 0 0 1 965.818182 642.885818c-1.047273 2.036364-2.210909 3.991273-3.525818 5.864727a58.635636 58.635636 0 0 1-4.410182 5.585455c-2.513455 2.816-5.236364 5.410909-8.168727 7.784727-2.013091 1.629091-4.154182 3.211636-6.4 4.724364-2.269091 1.512727-4.631273 2.955636-7.121455 4.328727-3.84 2.117818-7.819636 4.014545-11.869091 5.678546-2.792727 1.140364-5.666909 2.210909-8.645818 3.2a166.050909 166.050909 0 0 1-99.991273 0 127.220364 127.220364 0 0 1-12.765091-4.980364 108.194909 108.194909 0 0 1-7.761454-3.898182 91.845818 91.845818 0 0 1-13.521455-9.053091 73.856 73.856 0 0 1-5.701818-5.12 60.951273 60.951273 0 0 1-8.808727-11.136 43.869091 43.869091 0 0 1-5.829818-15.371636 39.621818 39.621818 0 0 1-0.54691-6.528c0.069818-7.773091 2.280727-15.36 6.376728-21.946182 1.198545-1.989818 2.525091-3.909818 3.979636-5.725091 2.292364-2.885818 4.829091-5.562182 7.563636-8.017454 1.861818-1.687273 3.863273-3.328 6.05091-4.910546a102.167273 102.167273 0 0 1 22.283636-12.334545 140.834909 140.834909 0 0 1 16.64-5.585455 163.898182 163.898182 0 0 1 41.995636-5.317818l0.011637-0.046545zM743.808 378.624c6.202182 0.581818 11.438545 4.887273 13.218909 10.914909 0 23.365818 14.289455 37.666909 31.906909 43.950546a67.898182 67.898182 0 0 0 18.850909 2.65309h38.830546a10.426182 10.426182 0 0 1 10.624 3.165091c2.653091 3.013818 3.374545 7.272727 1.861818 10.996364a10.472727 10.472727 0 0 1-8.971636 6.539636H811.287273a86.155636 86.155636 0 0 1-28.416-4.654545c-29.346909-8.727273-48.814545-32.884364-48.814546-63.790546 0-2.594909 1.024-5.096727 2.850909-6.923636a9.669818 9.669818 0 0 1 6.900364-2.850909z m17.082182 121.204364c22.318545 0.023273 40.378182 18.257455 40.378182 40.727272-0.023273 22.493091-18.117818 40.704-40.424728 40.692364-22.318545 0-40.401455-18.234182-40.401454-40.715636a40.773818 40.773818 0 0 1 11.822545-28.823273 40.157091 40.157091 0 0 1 28.625455-11.880727zM534.167273 709.306182a15.255273 15.255273 0 0 1 17.105454-0.756364 143.709091 143.709091 0 0 0 37.026909 18.618182c2.234182 0.674909 4.538182 1.396364 6.946909 1.943273 36.48 9.204364 70.050909 1.954909 99.770182-21.585455a11.229091 11.229091 0 0 1 15.662546 0.721455 11.438545 11.438545 0 0 1-0.151273 15.802182c-28.497455 22.539636-57.320727 29.533091-82.106182 29.53309a141.090909 141.090909 0 0 1-35.141818-4.561454 182.225455 182.225455 0 0 1-11.089455-3.258182 161.198545 161.198545 0 0 1-46.17309-22.737454 9.797818 9.797818 0 0 1-1.861819-13.73091zM519.063273 541.672727a45.160727 45.160727 0 0 1-28.788364 45.498182 44.602182 44.602182 0 0 1-51.502545-14.801454 45.416727 45.416727 0 0 1-0.64-53.957819 44.613818 44.613818 0 0 1 51.130181-16.034909 40.669091 40.669091 0 0 1 29.789091 39.296zM390.050909 436.130909h38.842182c26.158545 0 54.341818-14.941091 54.341818-47.755636 1.326545-5.469091 6.330182-9.227636 11.915636-8.96 5.585455 0.279273 10.205091 4.514909 11.008 10.100363 0 39.005091-31.022545 67.316364-73.751272 67.316364h-38.842182a10.426182 10.426182 0 0 1-10.624-3.165091 10.612364 10.612364 0 0 1-1.861818-10.996364 10.472727 10.472727 0 0 1 8.971636-6.539636z m-23.784727 123.927273a159.639273 159.639273 0 0 1 50.967273 8.052363c34.059636 10.542545 57.413818 32.069818 57.413818 56.913455 0 35.258182-46.964364 63.837091-104.878546 63.837091a159.639273 159.639273 0 0 1-50.967272-8.052364c-34.059636-10.542545-57.402182-32.069818-57.402182-56.913454 0-35.258182 46.964364-63.825455 104.878545-63.825455h-0.011636z m771.281454-54.260364l27.741091-214.039273-27.741091 214.039273z m-982.272 321.861818L85.841455 291.781818l69.189818 534.062546 0.232727 1.850181h0.011636z m936.052364 26.344728z m-58.321455 43.403636z" fill="#FFFFFF" p-id="17839"></path><path d="M155.275636 827.682909l3.281455-0.709818L89.285818 292.887273l71.424 551.272727a58.181818 58.181818 0 0 0 2.525091 10.973091 61.207273 61.207273 0 0 0 7.842909 15.627636c0.779636 1.128727 1.582545 2.234182 2.432 3.316364l0.663273 0.837818c1.384727 1.675636 2.769455 3.281455 4.340364 4.817455 0.965818 0.989091 1.978182 1.954909 3.013818 2.862545a81.687273 81.687273 0 0 0 6.516363 5.12 61.172364 61.172364 0 0 0 8.750546 5.026909c1.850182 0.872727 3.700364 1.652364 5.550545 2.327273a55.877818 55.877818 0 0 0 15.662546 2.269091h815.010909c3.665455 0 7.330909-0.372364 10.938182-1.105455a47.941818 47.941818 0 0 0 5.317818-1.396363 61.265455 61.265455 0 0 0 11.752727-4.957091 66.071273 66.071273 0 0 0 5.504-3.374546 67.444364 67.444364 0 0 0 13.870546-12.8l0.663272-0.837818a61.952 61.952 0 0 0 3.421091-4.817454 62.138182 62.138182 0 0 0 4.829091-8.901819 59.205818 59.205818 0 0 0 4.538182-16.209454l1.396364-10.589091 42.309818-326.667636 27.741091-214.039273a95.697455 95.697455 0 0 0 0.546909-5.585455 86.807273 86.807273 0 0 0 0.069818-9.239272 81.047273 81.047273 0 0 0-1.221818-10.565819c-0.232727-1.28-0.465455-2.269091-0.698182-3.374545a69.818182 69.818182 0 0 0-4.282182-12.660364 64.465455 64.465455 0 0 0-6.423273-11.077818 56.029091 56.029091 0 0 0-2.990545-3.746909 52.061091 52.061091 0 0 0-18.024727-13.707636 50.152727 50.152727 0 0 0-14.906182-4.189091 53.399273 53.399273 0 0 0-6.481455-0.395637H1093.585455l2.176-51.712a39.773091 39.773091 0 0 0-16.756364-32.500363 36.538182 36.538182 0 0 0-21.143273-6.714182H571.938909V71.447273c-0.197818-24.634182-20.130909-44.474182-44.578909-44.357818H289.396364c-24.471273-0.116364-44.404364 19.735273-44.590546 44.38109v54.853819h-51.013818a36.491636 36.491636 0 0 0-11.229091 1.745454 37.12 37.12 0 0 0-8.32 3.933091 38.842182 38.842182 0 0 0-14.72 16.989091 39.773091 39.773091 0 0 0-3.246545 11.566545c-0.232727 1.629091-0.372364 3.258182-0.418909 4.887273l2.187636 51.723637h-17.815273a53.399273 53.399273 0 0 0-12.683636 1.536 50.874182 50.874182 0 0 0-23.656727 13.428363c-2.955636 2.932364-5.585455 6.167273-7.854546 9.669818a64.372364 64.372364 0 0 0-5.899636 11.508364 70.458182 70.458182 0 0 0-4.328728 16.872727 77.707636 77.707636 0 0 0-0.535272 15.941818c0.116364 1.861818 0.290909 3.758545 0.535272 5.66691l69.469091 535.889454z m38.516364-687.383273h64.896V71.447273a30.626909 30.626909 0 0 1 30.72-30.382546h237.963636c3.793455 0 7.552 0.698182 11.089455 2.082909a30.522182 30.522182 0 0 1 23.063273 29.463273v67.688727h496.442181c2.990545 0 5.957818 0.581818 8.727273 1.745455a25.018182 25.018182 0 0 1 18.781091 24.354909l-2.187636 51.979636H175.499636v-1.128727h-3.456l-2.292363-52.037818c0.186182-13.730909 10.903273-24.913455 24.052363-24.913455z m-34.048 21.387637a40.564364 40.564364 0 0 0-0.302545 4.980363l2.176 51.712-2.176-51.712c0-1.675636 0.093091-3.362909 0.302545-5.026909v0.046546z m-48.256 82.746182a37.259636 37.259636 0 0 1 28.753455-13.288728h970.612363a37.259636 37.259636 0 0 1 28.788364 13.265455c9.832727 11.287273 14.161455 27.950545 11.869091 45.533091L1080.087273 841.239273a48.570182 48.570182 0 0 1-16.209455 29.789091 46.731636 46.731636 0 0 1-30.871273 12.381091h-814.894545a46.731636 46.731636 0 0 1-30.871273-12.392728 48.570182 48.570182 0 0 1-16.221091-29.777454L99.584 289.954909c-2.292364-17.640727 2.048-34.245818 11.904-45.521454z" fill="#686FE8" p-id="17840"></path><path d="M388.910545 455.645091a9.658182 9.658182 0 0 0 4.677819 1.198545h38.842181c42.740364 0 73.751273-28.311273 73.751273-67.316363a11.589818 11.589818 0 0 0-10.949818-10.973091 11.566545 11.566545 0 0 0-11.985455 9.832727c0 32.814545-28.16 47.755636-54.330181 47.755636h-38.830546a9.739636 9.739636 0 0 0-9.6 9.192728 9.774545 9.774545 0 0 0 8.424727 10.298182z m393.960728-3.456c9.157818 3.141818 18.769455 4.712727 28.450909 4.654545h38.830545a10.705455 10.705455 0 0 0-3.479272-20.701091h-38.842182a67.898182 67.898182 0 0 1-18.850909-2.65309c-17.664-6.306909-31.895273-20.596364-31.895273-43.950546a11.589818 11.589818 0 0 0-10.961455-10.973091 11.566545 11.566545 0 0 0-11.973818 9.832727c-0.058182 30.906182 19.421091 55.074909 48.721455 63.790546z m-307.735273 47.639273c-23.342545-0.407273-43.077818 17.326545-45.346909 40.738909-2.280727 23.412364 13.684364 44.660364 36.654545 48.826182a44.8 44.8 0 0 0 51.246546-32.907637c5.969455-22.737455-6.4-46.289455-28.427637-54.109091a40.145455 40.145455 0 0 0-14.126545-2.56z m275.141818 80a40.261818 40.261818 0 0 0 44.125091-16.605091 40.96 40.96 0 0 0-1.454545-47.441455 40.226909 40.226909 0 0 0-45.067637-13.812363 40.692364 40.692364 0 0 0-27.438545 38.562909 40.564364 40.564364 0 0 0 29.835636 39.296zM536.040727 723.013818c14.08 10.007273 29.672727 17.687273 46.161455 22.725818 3.514182 1.186909 7.202909 2.292364 11.101091 3.258182 11.473455 3.002182 23.272727 4.538182 35.141818 4.561455 24.785455 0 53.608727-6.981818 82.094545-29.521455a11.636364 11.636364 0 0 0-0.965818-14.731636 11.426909 11.426909 0 0 0-14.545454-1.792c-29.719273 23.517091-63.301818 30.743273-99.770182 21.573818a148.247273 148.247273 0 0 1-6.935273-1.943273 143.709091 143.709091 0 0 1-37.12-18.594909 10.472727 10.472727 0 0 0-18.385454 3.805091 10.647273 10.647273 0 0 0 3.141818 10.658909h0.081454z" fill="#686FE8" p-id="17841"></path><path d="M318.813091 680.808727c16.442182 5.422545 33.664 8.145455 50.967273 8.040728 57.937455 0 104.878545-28.578909 104.878545-63.825455 0-24.855273-23.354182-46.359273-57.402182-56.901818a159.639273 159.639273 0 0 0-50.978909-8.064c-57.925818 0-104.866909 28.590545-104.866909 63.837091 0 24.843636 23.342545 46.370909 57.402182 56.901818z m81.198545-52.957091l-20.130909 20.270546a9.774545 9.774545 0 0 1-13.521454-0.337455 9.949091 9.949091 0 0 1-0.349091-13.637818l20.130909-20.270545a9.774545 9.774545 0 0 1 13.533091 0.337454c3.700364 3.723636 3.84 9.728 0.349091 13.637818z m-75.461818 20.270546a9.972364 9.972364 0 0 1 0-13.963637l20.130909-20.282181a9.774545 9.774545 0 0 1 13.533091 0.337454c3.700364 3.723636 3.84 9.728 0.337455 13.637818l-20.130909 20.270546a9.797818 9.797818 0 0 1-13.870546 0zM811.287273 569.367273a111.220364 111.220364 0 0 0-19.781818 9.460363 91.345455 91.345455 0 0 0-12.788364 9.378909c-2.746182 2.455273-5.271273 5.131636-7.563636 8.017455a54.516364 54.516364 0 0 0-3.991273 5.725091 42.263273 42.263273 0 0 0-6.365091 21.946182c0 2.187636 0.174545 4.363636 0.535273 6.516363 0.965818 5.457455 2.944 10.670545 5.829818 15.383273 0.581818 0.930909 1.210182 1.896727 1.861818 2.885818 2.071273 2.955636 4.398545 5.713455 6.946909 8.261818 1.792 1.780364 3.677091 3.479273 5.643636 5.073455 4.235636 3.421091 8.762182 6.446545 13.521455 9.064727 2.490182 1.361455 5.085091 2.664727 7.773091 3.898182 4.165818 1.885091 8.424727 3.549091 12.765091 4.968727a166.050909 166.050909 0 0 0 99.979636 0 124.718545 124.718545 0 0 0 20.514909-8.866909 93.498182 93.498182 0 0 0 13.533091-9.064727c2.909091-2.362182 5.655273-4.968727 8.168727-7.773091 1.582545-1.768727 3.048727-3.630545 4.410182-5.585454 1.303273-1.873455 2.478545-3.84 3.525818-5.864728a41.425455 41.425455 0 0 0 4.712728-18.978909 42.263273 42.263273 0 0 0-6.365091-21.946182 54.516364 54.516364 0 0 0-3.979637-5.736727 65.815273 65.815273 0 0 0-7.575272-8.005818 69.422545 69.422545 0 0 0-6.039273-4.922182 102.167273 102.167273 0 0 0-6.772364-4.526545 111.232 111.232 0 0 0-15.418181-7.703273 115.712 115.712 0 0 0-4.25891-1.664 157.963636 157.963636 0 0 0-54.376727-9.227636c-14.161455-0.058182-28.276364 1.745455-41.984 5.317818-4.328727 1.140364-8.494545 2.466909-12.462545 3.968z m65.617454 43.333818a9.669818 9.669818 0 0 1 6.935273-2.897455h0.174545a9.669818 9.669818 0 0 1 6.935273 2.897455l20.130909 20.270545c2.792727 2.839273 3.642182 7.086545 2.117818 10.775273a9.821091 9.821091 0 0 1-9.05309 6.109091h-0.186182a9.669818 9.669818 0 0 1-6.935273-2.885818l-20.130909-20.293818a9.960727 9.960727 0 0 1 0-13.975273z m-41.402182 0a9.669818 9.669818 0 0 1 6.935273-2.897455h0.186182a9.669818 9.669818 0 0 1 6.935273 2.897455l20.130909 20.270545a9.937455 9.937455 0 0 1 2.141091 10.786909 9.809455 9.809455 0 0 1-9.076364 6.097455h-0.186182a9.751273 9.751273 0 0 1-6.935272-2.885818l-20.13091-20.293818a9.972364 9.972364 0 0 1 0-13.975273z" fill="#E1E2F6" p-id="17842"></path><path d="M874.193455 619.682909a9.821091 9.821091 0 0 0 2.874181 6.981818l20.130909 20.293818a9.739636 9.739636 0 0 0 6.795637 2.885819h0.151273c3.956364 0 7.540364-2.420364 9.05309-6.109091a9.949091 9.949091 0 0 0-2.117818-10.775273l-20.130909-20.258909a9.669818 9.669818 0 0 0-6.935273-2.897455h-0.09309a9.821091 9.821091 0 0 0-9.716364 9.890909z m5.818181-4.026182c2.210909-2.210909 5.783273-2.210909 8.005819 0l20.130909 20.282182a5.736727 5.736727 0 0 1-2.548364 9.541818 5.632 5.632 0 0 1-5.469091-1.477818l-20.165818-20.247273a5.725091 5.725091 0 0 1 0-8.064l0.046545-0.034909z m-47.208727 4.026182a9.821091 9.821091 0 0 0 2.874182 6.981818l20.130909 20.293818c1.826909 1.861818 4.328727 2.909091 6.935273 2.885819 3.956364 0 7.540364-2.420364 9.053091-6.109091a9.949091 9.949091 0 0 0-2.117819-10.775273l-20.119272-20.258909a9.669818 9.669818 0 0 0-6.935273-2.897455h-0.116364a9.821091 9.821091 0 0 0-9.704727 9.890909z m5.794909-4.026182a5.620364 5.620364 0 0 1 7.994182 0l20.130909 20.282182a5.736727 5.736727 0 0 1-2.536727 9.541818 5.632 5.632 0 0 1-5.469091-1.477818l-20.130909-20.282182a5.76 5.76 0 0 1 0-8.064h0.011636z" fill="#FFFFFF" p-id="17843"></path><path d="M858.740364 644.026182c2.210909 2.234182 5.794909 2.234182 8.005818 0a5.736727 5.736727 0 0 0 0-8.064l-20.072727-20.270546a5.655273 5.655273 0 0 0-9.274182 1.861819 5.736727 5.736727 0 0 0 1.28 6.260363l20.061091 20.212364z m41.390545 0a5.632 5.632 0 0 0 9.472-2.56 5.736727 5.736727 0 0 0-1.466182-5.504l-20.130909-20.270546a5.632 5.632 0 0 0-7.994182 0 5.736727 5.736727 0 0 0 0 8.064l20.130909 20.270546z" fill="#686FE8" p-id="17844"></path><path d="M161.617455 218.321455l-2.176-51.712 2.176 51.712z" fill="#EDF3FF" p-id="17845"></path><path d="M1160.168727 245.666909z m8.610909 47.243636l-25.355636 195.665455 25.367273-195.677091z m-1079.493818 0l69.213091 534.062546 2.234182 17.198545-71.447273-551.272727z" fill="#FFFFFF" p-id="17846"></path><path d="M389.003636 616.890182l-20.119272 20.282182a5.736727 5.736727 0 0 0 2.536727 9.541818 5.632 5.632 0 0 0 5.469091-1.477818l20.130909-20.282182a5.736727 5.736727 0 0 0 0-8.064 5.632 5.632 0 0 0-8.005818 0z" fill="#686FE8" p-id="17847"></path><path d="M393.076364 610.978909a9.669818 9.669818 0 0 0-6.935273 2.897455l-20.130909 20.270545a9.949091 9.949091 0 0 0 0.349091 13.637818 9.774545 9.774545 0 0 0 13.521454 0.349091l20.130909-20.282182a9.937455 9.937455 0 0 0 2.141091-10.786909 9.809455 9.809455 0 0 0-9.076363-6.097454z m3.991272 5.853091a5.725091 5.725091 0 0 1 0 8.064l-20.130909 20.282182a5.632 5.632 0 0 1-7.994182 0 5.736727 5.736727 0 0 1 0-8.064l20.072728-20.224c2.210909-2.210909 5.783273-2.210909 8.005818 0l0.046545-0.058182z" fill="#FFFFFF" p-id="17848"></path><path d="M347.624727 616.890182l-20.130909 20.282182a5.736727 5.736727 0 0 0 0 8.064c2.210909 2.222545 5.794909 2.222545 8.005818 0l20.130909-20.352a5.736727 5.736727 0 0 0 0-8.064 5.632 5.632 0 0 0-8.005818 0v0.069818z" fill="#686FE8" p-id="17849"></path><path d="M338.432 648.122182l20.130909-20.270546a9.949091 9.949091 0 0 0-0.337454-13.637818 9.774545 9.774545 0 0 0-13.533091-0.349091l-20.130909 20.270546a9.949091 9.949091 0 0 0 0.325818 13.637818 9.774545 9.774545 0 0 0 13.533091 0.349091h0.011636z m17.186909-31.232a5.76 5.76 0 0 1 0 8.064l-20.130909 20.282182a5.632 5.632 0 0 1-9.460364-2.56 5.736727 5.736727 0 0 1 1.466182-5.504l20.130909-20.282182c2.210909-2.210909 5.783273-2.210909 7.994182 0z" fill="#FFFFFF" p-id="17850"></path><path d="M45.579636 70.237091H94.487273v49.256727c0 3.863273 3.106909 6.981818 6.935272 6.981818 3.84 0 6.935273-3.118545 6.935273-6.981818V70.237091h48.919273c3.828364 0 6.935273-3.141818 6.935273-6.993455 0-3.863273-3.106909-6.981818-6.935273-6.981818H108.334545V6.981818C108.346182 3.130182 105.250909 0 101.410909 0a6.958545 6.958545 0 0 0-6.935273 6.981818v49.268364H45.579636a6.958545 6.958545 0 0 0-6.935272 6.993454c0 3.863273 3.106909 6.981818 6.935272 6.981819zM1170.338909 951.738182v-9.716364c0-3.863273-3.106909-6.981818-6.935273-6.981818a6.958545 6.958545 0 0 0-6.935272 6.981818v21.317818h-21.154909a6.958545 6.958545 0 0 0-6.935273 6.981819c0 3.863273 3.106909 6.981818 6.935273 6.981818h21.154909v21.317818c0 3.863273 3.106909 6.993455 6.935272 6.993454 3.84 0 6.935273-3.130182 6.935273-6.981818v-21.317818h21.154909c3.84 0 6.935273-3.141818 6.935273-6.981818 0-3.863273-3.106909-6.993455-6.935273-6.993455h-21.154909v-11.601454z" fill="#686FE8" p-id="17851"></path></svg>